<svg width="24" height="24" viewBox="0 0 24 24" fill="none" xmlns="http://www.w3.org/2000/svg">
<path d="M11 15H13C13.5304 15 14.0391 14.7893 14.4142 14.4142C14.7893 14.0391 15 13.5304 15 13C15 12.4696 14.7893 11.9609 14.4142 11.5858C14.0391 11.2107 13.5304 11 13 11H10C9.4 11 8.9 11.2 8.6 11.6L3 17" stroke="#145C2A" stroke-width="2" stroke-linecap="round" stroke-linejoin="round"/>
<path d="M7 21.0003L8.6 19.6003C8.9 19.2003 9.4 19.0003 10 19.0003H14C15.1 19.0003 16.1 18.6003 16.8 17.8003L21.4 13.4003C21.7859 13.0356 22.0111 12.5326 22.0261 12.0018C22.0411 11.4711 21.8447 10.9562 21.48 10.5703C21.1153 10.1844 20.6123 9.95916 20.0816 9.94416C19.5508 9.92916 19.0359 10.1256 18.65 10.4903L14.45 14.3903" stroke="#145C2A" stroke-width="2" stroke-linecap="round" stroke-linejoin="round"/>
<path d="M2 16L8 22" stroke="#145C2A" stroke-width="2" stroke-linecap="round" stroke-linejoin="round"/>
<path d="M16.0001 11.8996C17.6017 11.8996 18.9001 10.6012 18.9001 8.99961C18.9001 7.39798 17.6017 6.09961 16.0001 6.09961C14.3985 6.09961 13.1001 7.39798 13.1001 8.99961C13.1001 10.6012 14.3985 11.8996 16.0001 11.8996Z" stroke="#145C2A" stroke-width="2" stroke-linecap="round" stroke-linejoin="round"/>
<path d="M6 8C7.65685 8 9 6.65685 9 5C9 3.34315 7.65685 2 6 2C4.34315 2 3 3.34315 3 5C3 6.65685 4.34315 8 6 8Z" stroke="#145C2A" stroke-width="2" stroke-linecap="round" stroke-linejoin="round"/>
</svg>
