<svg width="27" height="27" viewBox="0 0 27 27" fill="none" xmlns="http://www.w3.org/2000/svg">
<path fill-rule="evenodd" clip-rule="evenodd" d="M25.8352 0.622855C25.962 0.696346 26.0666 0.79897 26.1392 0.920997C26.2118 1.04302 26.2499 1.18041 26.25 1.32013V25.9297C26.25 26.1472 26.1578 26.3559 25.9937 26.5097C25.8296 26.6636 25.6071 26.75 25.375 26.75H20.125C19.8929 26.75 19.6704 26.6636 19.5063 26.5097C19.3422 26.3559 19.25 26.1472 19.25 25.9297V23.4687H17.5V25.9297C17.5 26.1472 17.4078 26.3559 17.2437 26.5097C17.0796 26.6636 16.8571 26.75 16.625 26.75H0.875C0.642936 26.75 0.420376 26.6636 0.256282 26.5097C0.0921872 26.3559 0 26.1472 0 25.9297V16.9062C0.000139382 16.7341 0.0580092 16.5664 0.165419 16.4268C0.272828 16.2873 0.424337 16.1829 0.5985 16.1285L10.5 13.0343V7.88267C10.5 7.73046 10.5452 7.58124 10.6305 7.45173C10.7158 7.32221 10.8378 7.2175 10.983 7.14931L24.983 0.586761C25.1165 0.524098 25.265 0.494518 25.4141 0.500836C25.5633 0.507154 25.7083 0.549159 25.8352 0.622855ZM10.5 14.7635L1.75 17.4968V25.1094H10.5V14.7635ZM12.25 25.1094H15.75V22.6484C15.75 22.4308 15.8422 22.2222 16.0063 22.0684C16.1704 21.9145 16.3929 21.8281 16.625 21.8281H20.125C20.3571 21.8281 20.5796 21.9145 20.7437 22.0684C20.9078 22.2222 21 22.4308 21 22.6484V25.1094H24.5V2.6474L12.25 8.38963V25.1094Z" fill="#145C2A"/>
<path d="M3.5 18.5467H5.25V20.1873H3.5V18.5467ZM7 18.5467H8.75V20.1873H7V18.5467ZM3.5 21.828H5.25V23.4686H3.5V21.828ZM7 21.828H8.75V23.4686H7V21.828ZM14 15.2654H15.75V16.9061H14V15.2654ZM17.5 15.2654H19.25V16.9061H17.5V15.2654ZM14 18.5467H15.75V20.1873H14V18.5467ZM17.5 18.5467H19.25V20.1873H17.5V18.5467ZM21 15.2654H22.75V16.9061H21V15.2654ZM21 18.5467H22.75V20.1873H21V18.5467ZM14 11.9841H15.75V13.6248H14V11.9841ZM17.5 11.9841H19.25V13.6248H17.5V11.9841ZM21 11.9841H22.75V13.6248H21V11.9841ZM14 8.70287H15.75V10.3435H14V8.70287ZM17.5 8.70287H19.25V10.3435H17.5V8.70287ZM21 8.70287H22.75V10.3435H21V8.70287ZM21 5.4216H22.75V7.06224H21V5.4216Z" fill="#145C2A"/>
</svg>
