<svg width="22" height="29" viewBox="0 0 22 29" fill="none" xmlns="http://www.w3.org/2000/svg">
<path d="M3.04616 23.0227C2.75992 23.3406 2.54626 23.7063 2.42666 24.0763C2.34293 24.337 2.30273 24.5942 2.30273 24.8351C2.30273 24.9821 2.31728 25.1222 2.34889 25.2547C2.37284 25.353 2.40527 25.447 2.44886 25.5333C2.48134 25.5991 2.52066 25.6614 2.56677 25.7178C2.636 25.8016 2.72142 25.8742 2.82314 25.9246C2.92398 25.9759 3.0402 26.0032 3.1581 26.0024V25.4683C3.13333 25.4683 3.11452 25.4648 3.09658 25.4598C3.06497 25.4512 3.03932 25.4367 3.01028 25.411C2.98977 25.3914 2.96757 25.3658 2.94706 25.3307C2.91627 25.2803 2.88723 25.2102 2.8676 25.1265C2.84797 25.0419 2.83681 24.9436 2.83681 24.8351C2.83681 24.6548 2.86842 24.4497 2.93509 24.2395C2.99748 24.0464 3.09658 23.8464 3.22646 23.6568C3.42044 23.3714 3.68534 23.1108 3.99121 22.9244C4.1433 22.8313 4.30736 22.7561 4.47744 22.7048C4.64834 22.6535 4.82695 22.6262 5.01152 22.6262C5.25761 22.6262 5.49348 22.6757 5.71392 22.7646C6.04374 22.8962 6.34195 23.1175 6.58039 23.3815C6.81795 23.6447 6.99481 23.9506 7.08712 24.2395C7.15461 24.4497 7.18627 24.6548 7.18627 24.8351C7.18627 24.9453 7.1743 25.0453 7.15379 25.1299C7.13924 25.1931 7.11873 25.2495 7.09653 25.2939C7.07941 25.3281 7.06148 25.3555 7.04272 25.3786C7.01537 25.4119 6.98803 25.4332 6.96156 25.4469C6.93422 25.4597 6.906 25.4674 6.86498 25.4683V26.0024C6.93504 26.0032 7.00427 25.993 7.07006 25.975C7.1854 25.9434 7.28881 25.8836 7.37341 25.8058C7.43663 25.7477 7.48962 25.6811 7.53321 25.6085C7.59987 25.4991 7.64603 25.3777 7.67589 25.2478C7.70575 25.118 7.72035 24.9795 7.72035 24.8351C7.72035 24.5942 7.68021 24.3361 7.59643 24.0763C7.51697 23.8294 7.39562 23.585 7.23839 23.3551C7.00252 23.0107 6.68807 22.698 6.3104 22.4673C6.12156 22.3528 5.9173 22.2588 5.69943 22.1939C5.48155 22.1272 5.25083 22.0913 5.01157 22.0913C4.69285 22.0913 4.38862 22.1563 4.11092 22.2682C3.693 22.4357 3.33239 22.7057 3.04616 23.0227Z" fill="#145C2A"/>
<path d="M6.05638 25.2247C5.96921 25.2939 5.91797 25.3982 5.91797 25.5101V25.9417C5.91797 26.0527 5.96927 26.1578 6.05638 26.2271C6.14355 26.2954 6.25807 26.3211 6.3657 26.2954L6.65368 26.2271V25.2239L6.3657 25.1555C6.25802 25.1299 6.14355 25.1555 6.05638 25.2247Z" fill="#145C2A"/>
<path d="M3.65697 25.1555L3.36816 25.2239V26.2271L3.65697 26.2954C3.76465 26.3211 3.87916 26.2954 3.96628 26.2271C4.05345 26.1578 4.1047 26.0527 4.1047 25.9417V25.5101C4.1047 25.3982 4.0534 25.2939 3.96628 25.2247C3.87916 25.1555 3.76465 25.1299 3.65697 25.1555Z" fill="#145C2A"/>
<path d="M21.7984 23.9934C21.6881 23.5816 21.5326 23.2124 21.3412 22.8843C21.0054 22.3075 20.5611 21.8589 20.0706 21.5034C19.7024 21.2368 19.3093 21.019 18.9094 20.8318C18.3104 20.5516 17.6977 20.3362 17.1321 20.1269C16.5664 19.9183 16.0494 19.7141 15.647 19.4766C15.5 19.3894 15.3676 19.2988 15.253 19.204C15.0821 19.0613 14.9488 18.9092 14.8523 18.7392C14.7558 18.5691 14.6908 18.3777 14.666 18.1385C14.6481 17.9676 14.6404 17.8069 14.6404 17.6531C14.6404 17.2003 14.707 16.808 14.7925 16.4073C15.0454 16.1219 15.2769 15.7818 15.4957 15.3751C15.7153 14.9658 15.9238 14.4881 16.1314 13.9224C16.2648 13.8617 16.3989 13.7891 16.5296 13.7002C16.8287 13.5003 17.1124 13.22 17.3491 12.8466C17.5849 12.4732 17.7746 12.0091 17.9045 11.4367C17.9403 11.2778 17.9574 11.1197 17.9574 10.9641C17.9583 10.6394 17.8814 10.3301 17.7524 10.0533C17.6626 9.86097 17.549 9.68498 17.4165 9.52519C17.484 9.27565 17.5661 8.93987 17.6396 8.54677C17.7404 8.00077 17.8241 7.34452 17.8241 6.65491C17.8241 6.2097 17.7891 5.75 17.6985 5.29626C17.631 4.95616 17.531 4.61862 17.3909 4.29564C17.1798 3.80941 16.8731 3.35228 16.4467 2.97461C16.0519 2.6251 15.5571 2.34658 14.9598 2.16797C14.7488 1.91504 14.5369 1.69968 14.3198 1.51686C14.1318 1.35963 13.9396 1.22718 13.743 1.11868C13.4474 0.954617 13.1414 0.846117 12.8279 0.780273C12.5143 0.71443 12.1947 0.690531 11.8631 0.690531C11.406 0.690531 10.9249 0.735812 10.3934 0.78793C10.1926 0.808437 10.0243 0.833211 9.87814 0.858859C9.66026 0.89818 9.49702 0.93832 9.36632 0.964844C9.30053 0.977641 9.24327 0.987922 9.18689 0.994758C9.1305 1.00072 9.07582 1.00504 9.01342 1.00504C8.92969 1.00504 8.83311 0.998203 8.70668 0.980266C8.3196 0.923883 7.96582 0.836711 7.68812 0.751234C7.54971 0.709344 7.43005 0.667508 7.33604 0.631578C7.28907 0.613641 7.24805 0.597398 7.21557 0.583727C7.18226 0.570055 7.15743 0.557258 7.14294 0.550422L7.14382 0.551297C7.10111 0.529094 7.06009 0.517117 7.02334 0.510281C6.98659 0.501695 6.95416 0.5 6.92594 0.5C6.86699 0.5 6.8251 0.508531 6.79179 0.517117C6.75849 0.525703 6.73284 0.53593 6.70976 0.545336C6.6653 0.563273 6.63112 0.582086 6.59694 0.602594C6.53454 0.640219 6.47477 0.682055 6.4115 0.730781C6.30125 0.816258 6.17995 0.922188 6.05089 1.04693C5.85778 1.2332 5.65096 1.45878 5.463 1.70487C5.36899 1.82705 5.281 1.95523 5.20154 2.08769C5.12207 2.22014 5.05202 2.35598 4.99646 2.49872C4.72471 3.20539 4.54528 3.8565 4.43421 4.45724C4.32227 5.05793 4.27956 5.60825 4.27956 6.11323C4.27956 6.93951 4.39489 7.64022 4.50602 8.23238C4.50602 8.26059 4.50689 8.28706 4.50859 8.31528C4.51203 8.37084 4.518 8.4281 4.52396 8.48787C4.53336 8.57674 4.54359 8.66818 4.5513 8.74507C4.55557 8.78352 4.55901 8.8177 4.56158 8.84422C4.56246 8.85702 4.56328 8.86899 4.56328 8.87752L4.56415 8.88605V8.88863V8.8895V8.93992L4.67265 9.4227C4.5163 9.5936 4.38128 9.78501 4.27617 9.99523C4.12917 10.2875 4.04205 10.6173 4.04205 10.9659C4.04205 11.1198 4.05999 11.2787 4.09586 11.4367C4.18134 11.8187 4.29498 12.1519 4.43082 12.4425C4.63421 12.8791 4.89228 13.2184 5.17764 13.473C5.39896 13.6713 5.63564 13.8157 5.86976 13.9225C6.07653 14.4882 6.28506 14.965 6.50463 15.3743C6.72338 15.7819 6.95411 16.1211 7.20704 16.4065C7.29251 16.8073 7.35912 17.2004 7.36 17.6532C7.36 17.8071 7.35147 17.9677 7.33353 18.1386C7.31641 18.3026 7.28054 18.4445 7.22842 18.5727C7.15065 18.7641 7.03701 18.9273 6.88236 19.082C6.7277 19.2341 6.53028 19.3768 6.29704 19.5093C6.06035 19.6434 5.78604 19.769 5.48782 19.8887C4.96485 20.1006 4.36843 20.3005 3.76429 20.5424C3.31143 20.7227 2.85254 20.9286 2.41504 21.1858C2.08692 21.3789 1.77159 21.6028 1.48109 21.8685C1.04616 22.2667 0.671004 22.7632 0.412113 23.3767C0.152348 23.9911 0.00791802 24.7182 0.00879302 25.5779C0.00879302 25.6992 0.0344415 25.8146 0.0762774 25.9214C0.114723 26.0213 0.16859 26.1128 0.231809 26.2C0.351465 26.3623 0.505246 26.5076 0.694082 26.6477C1.02565 26.8921 1.46567 27.1211 2.03562 27.3365C2.89011 27.6586 4.03516 27.9483 5.51599 28.1585C6.996 28.3687 8.81178 28.5003 10.9993 28.5003C12.8971 28.5003 14.5138 28.402 15.875 28.2388C16.8953 28.1158 17.7728 27.9568 18.5171 27.7748C19.076 27.639 19.5604 27.4894 19.9757 27.3322C20.2868 27.2143 20.5602 27.0912 20.7978 26.9648C20.9755 26.8699 21.1327 26.7725 21.272 26.6725C21.4805 26.5212 21.648 26.3658 21.7753 26.1889C21.8394 26.1009 21.8915 26.0069 21.93 25.9043C21.9684 25.8035 21.9915 25.6924 21.9915 25.5779C21.9915 24.9898 21.924 24.4642 21.7984 23.9934ZM14.8975 20.0833L12.1546 24.3668L11.8487 22.2639L12.6271 21.4402L12.1229 20.5994L14.2506 19.4808C14.3096 19.5569 14.372 19.6286 14.4378 19.697C14.5788 19.8414 14.7335 19.9688 14.8975 20.0833ZM7.01224 5.26634C9.48515 5.81491 14.3207 4.76645 14.3207 4.76645C14.3207 4.76645 14.3728 5.9653 15.1974 7.06589C15.5222 7.49825 15.7896 8.17419 15.9904 8.81677C15.9366 8.7168 15.8101 8.67917 15.6213 8.65527C15.1974 8.59802 14.5676 8.56127 13.8585 8.59545C11.7513 8.69886 11.9076 8.89027 11.0805 8.89027C10.2533 8.89027 10.4097 8.69886 8.30254 8.59545C7.59329 8.56127 6.96357 8.59802 6.53886 8.65527C6.31842 8.68431 6.17995 8.72877 6.14834 8.87572C6.13724 8.93041 6.12012 8.99193 6.04411 9.02184C6.2774 8.15029 6.92682 7.03685 7.01224 5.26634ZM15.5896 10.1506C15.5896 10.1626 15.5811 11.3709 14.7591 11.7836C14.4797 11.9245 14.1293 12.0023 13.773 12.0032C13.397 12.0032 13.0535 11.9177 12.7792 11.7562C12.4758 11.5785 12.2716 11.3145 12.1717 10.9735C12.1477 10.894 12.1264 10.8146 12.1042 10.7376C12.0392 10.5026 11.8641 9.84981 12.2358 9.5627C12.475 9.37556 13.2176 9.25766 13.9294 9.25766C14.5762 9.25766 15.2359 9.34565 15.429 9.54734C15.5563 9.68066 15.6059 9.91823 15.5896 10.1506ZM10.0568 10.7377C10.0346 10.8146 10.0123 10.894 9.98932 10.9735C9.88935 11.3145 9.68509 11.5785 9.38261 11.7563C9.10748 11.9178 8.76393 12.0032 8.38796 12.0032C8.03161 12.0024 7.68216 11.9246 7.40189 11.7836C6.57988 11.3709 6.57217 10.1626 6.57129 10.1507C6.55505 9.91828 6.6046 9.68072 6.73109 9.54745C6.92507 9.34576 7.58471 9.25777 8.23161 9.25777C8.94254 9.25777 9.68596 9.37567 9.92604 9.56281C10.2969 9.84987 10.1218 10.5027 10.0568 10.7377ZM7.31132 14.9409C7.09684 14.541 6.88323 14.0437 6.66361 13.4234L6.59098 13.2209L6.38929 13.1465C6.24913 13.0952 6.11241 13.0286 5.98171 12.9406C5.78434 12.8081 5.5972 12.627 5.42543 12.357C5.25365 12.0869 5.09987 11.7246 4.9888 11.235C4.96742 11.1419 4.95889 11.053 4.95889 10.9658C4.95889 10.7693 5.00586 10.583 5.09561 10.4053C5.16911 10.2575 5.27164 10.1182 5.39639 9.99167C5.60661 10.3096 5.78089 10.5616 5.84417 10.6248C5.96464 10.7453 6.02447 10.6291 6.03388 10.4035C6.1082 10.9051 6.34664 11.7331 7.11653 12.1424C8.22482 12.7312 9.87912 12.5107 10.4405 11.1999C10.6943 10.6086 10.6977 10.031 11.0805 10.031C11.4624 10.031 11.4668 10.6087 11.7205 11.1999C12.2827 12.5107 13.937 12.7312 15.0453 12.1424C16.1528 11.5537 16.1605 10.0959 16.1605 9.99337C16.1605 9.94038 16.2109 9.90023 16.2826 9.89252C16.3767 10.2881 16.4253 10.5565 16.4253 10.5565C16.4253 10.5565 16.5313 10.354 16.6902 10.0839C16.7851 10.195 16.8637 10.3147 16.9218 10.4394C16.9995 10.6069 17.0414 10.7821 17.0414 10.9641C17.0414 11.0521 17.032 11.1418 17.0106 11.2341C16.9371 11.5605 16.844 11.8305 16.7398 12.0544C16.5826 12.3894 16.4014 12.6201 16.2117 12.7893C16.0229 12.9585 15.8212 13.0687 15.6118 13.1465L15.4093 13.22L15.3375 13.4234C15.1179 14.0437 14.9034 14.5419 14.689 14.9409C14.4736 15.3409 14.26 15.6417 14.0379 15.8758L13.9499 15.9689L13.9226 16.0928C13.8234 16.55 13.7243 17.055 13.7243 17.6531C13.7243 17.8377 13.7337 18.03 13.7542 18.2325C13.779 18.47 13.8337 18.6931 13.9149 18.8981C13.9183 18.9075 13.9234 18.9178 13.9269 18.9264L11.1438 20.3901L8.05907 18.9588C8.15389 18.7366 8.21799 18.494 8.24533 18.2325C8.26672 18.03 8.27525 17.8377 8.27525 17.6532C8.27612 17.055 8.17697 16.5491 8.077 16.092L8.04966 15.9681L7.96167 15.8758C7.74029 15.6399 7.52581 15.3408 7.31132 14.9409ZM7.28655 19.9465C7.44722 19.8175 7.59504 19.6731 7.72575 19.5107L10.0782 20.6028L9.57572 21.4402L10.3533 22.264L10.0662 24.2438L7.06523 20.109C7.1413 20.0567 7.21562 20.0029 7.28655 19.9465ZM21.0746 25.5742C21.0738 25.5794 21.0678 25.5964 21.0516 25.6238C21.0208 25.6768 20.949 25.7622 20.8277 25.8596C20.7226 25.9442 20.5807 26.0391 20.4021 26.1365C20.0886 26.3083 19.6639 26.4868 19.1255 26.656C18.3172 26.9107 17.2499 27.1431 15.9032 27.3123C14.5565 27.4798 12.9305 27.584 10.9993 27.584C9.13477 27.584 7.55397 27.4866 6.23464 27.3285C5.24512 27.2098 4.40261 27.056 3.7002 26.8851C3.17214 26.7561 2.72266 26.6168 2.34925 26.4749C2.06811 26.3689 1.82972 26.2613 1.63405 26.1562C1.48705 26.0776 1.36318 25.9999 1.26234 25.928C1.11195 25.8204 1.01625 25.7221 0.968394 25.6546C0.944441 25.6221 0.93252 25.5965 0.928254 25.5846C0.925684 25.5794 0.924809 25.576 0.924809 25.5743C0.924809 25.0616 0.982941 24.6224 1.08373 24.2413C1.17172 23.908 1.29307 23.6183 1.44089 23.362C1.69897 22.9134 2.03819 22.5613 2.44151 22.2648C2.74229 22.0418 3.07982 21.8512 3.43699 21.6812C3.83774 21.4906 4.26326 21.3266 4.69053 21.1685V22.0913H5.01095H5.33136V20.9318C5.73982 20.7788 6.138 20.6216 6.50884 20.4336L11.2504 26.9662L15.393 20.4986C15.4058 20.5182 15.4186 20.5379 15.4306 20.5567C15.6032 20.8344 15.7237 21.1369 15.804 21.4795C15.8835 21.8213 15.9202 22.2042 15.9202 22.6306C15.9202 23.6184 15.9202 24.4788 15.9202 25.0582H14.4318V25.6999H18.0959V25.0582H16.6073C16.6073 24.4788 16.6073 23.6184 16.6073 22.6306C16.6073 22.0094 16.5364 21.4437 16.3604 20.9275C16.345 20.8831 16.3287 20.8387 16.3116 20.7951C16.8123 20.9924 17.3361 21.1702 17.8438 21.3719C18.2787 21.5436 18.7008 21.7316 19.0845 21.9546C19.3733 22.1221 19.6408 22.3101 19.8783 22.5237C20.2347 22.8476 20.5269 23.2295 20.7371 23.7191C20.9464 24.2079 21.0746 24.8095 21.0746 25.5742Z" fill="#145C2A"/>
</svg>
