<svg width="24" height="24" viewBox="0 0 24 24" fill="none" xmlns="http://www.w3.org/2000/svg">
<path d="M18 22H4C3.46957 22 2.96086 21.7893 2.58579 21.4142C2.21071 21.0391 2 20.5304 2 20V6" stroke="#6F6767" stroke-width="2" stroke-linecap="round" stroke-linejoin="round"/>
<path d="M22 12.9998L20.704 11.7038C20.252 11.2519 19.6391 10.998 19 10.998C18.3609 10.998 17.748 11.2519 17.296 11.7038L11 17.9998" stroke="#6F6767" stroke-width="2" stroke-linecap="round" stroke-linejoin="round"/>
<path d="M12 10C13.1046 10 14 9.10457 14 8C14 6.89543 13.1046 6 12 6C10.8954 6 10 6.89543 10 8C10 9.10457 10.8954 10 12 10Z" stroke="#6F6767" stroke-width="2" stroke-linecap="round" stroke-linejoin="round"/>
<path d="M20 2H8C6.89543 2 6 2.89543 6 4V16C6 17.1046 6.89543 18 8 18H20C21.1046 18 22 17.1046 22 16V4C22 2.89543 21.1046 2 20 2Z" stroke="#6F6767" stroke-width="2" stroke-linecap="round" stroke-linejoin="round"/>
</svg>
