<svg width="52" height="52" viewBox="0 0 52 52" fill="none" xmlns="http://www.w3.org/2000/svg">
<path d="M45.5 16.2503V13.0003C45.5 11.8511 45.0435 10.7489 44.2308 9.9362C43.4181 9.12354 42.3159 8.66699 41.1667 8.66699H10.8333C9.68406 8.66699 8.58186 9.12354 7.7692 9.9362C6.95655 10.7489 6.5 11.8511 6.5 13.0003V43.3337C6.5 44.4829 6.95655 45.5851 7.7692 46.3978C8.58186 47.2104 9.68406 47.667 10.8333 47.667H18.4167" stroke="#89D7E4" stroke-width="3" stroke-linecap="round" stroke-linejoin="round"/>
<path d="M34.667 4.33301V12.9997" stroke="#89D7E4" stroke-width="3" stroke-linecap="round" stroke-linejoin="round"/>
<path d="M17.333 4.33301V12.9997" stroke="#89D7E4" stroke-width="3" stroke-linecap="round" stroke-linejoin="round"/>
<path d="M6.5 21.667H17.3333" stroke="#89D7E4" stroke-width="3" stroke-linecap="round" stroke-linejoin="round"/>
<path d="M37.917 37.9163L34.667 35.3163V30.333" stroke="#89D7E4" stroke-width="3" stroke-linecap="round" stroke-linejoin="round"/>
<path d="M34.667 47.667C41.8467 47.667 47.667 41.8467 47.667 34.667C47.667 27.4873 41.8467 21.667 34.667 21.667C27.4873 21.667 21.667 27.4873 21.667 34.667C21.667 41.8467 27.4873 47.667 34.667 47.667Z" stroke="#89D7E4" stroke-width="3" stroke-linecap="round" stroke-linejoin="round"/>
</svg>
